<?xml version="1.0" encoding="UTF-8" standalone="no"?>
<!-- Created with Inkscape (http://www.inkscape.org/) -->

<svg
   version="1.1"
   id="svg2"
   width="151.18134"
   height="49.134132"
   viewBox="0 0 151.18134 49.134132"
   xmlns="http://www.w3.org/2000/svg"
   xmlns:svg="http://www.w3.org/2000/svg">
  <defs
     id="defs6">
    <clipPath
       clipPathUnits="userSpaceOnUse"
       id="clipPath16">
      <path
         d="M 0,36.851 H 113.386 V 0 H 0 Z"
         id="path14" />
    </clipPath>
  </defs>
  <g
     id="g8"
     transform="matrix(1.3333333,0,0,-1.3333333,0,49.134133)">
    <g
       id="g10">
      <g
         id="g12"
         clip-path="url(#clipPath16)">
        <g
           id="g18"
           transform="translate(53.021,3.9312)">
          <path
             d="M 0,0 C 0,0.504 -0.1,0.936 -0.144,1.108 -0.575,2.923 -1.871,3.499 -2.562,3.7 -3.08,3.845 -3.527,3.859 -3.729,3.859 -4.363,3.859 -6.248,3.714 -7.126,1.871 -7.53,1.066 -7.558,0.273 -7.558,-0.044 c 0,-2.289 1.468,-3.872 3.772,-3.872 1.814,0 3.224,0.95 3.642,2.749 C -0.1,-1.008 0,-0.504 0,0 m -1.771,0.014 c -0.013,-0.908 -0.201,-2.145 -1.021,-2.693 -0.16,-0.1 -0.462,-0.273 -0.937,-0.273 -0.446,0 -0.834,0.144 -1.166,0.432 -0.503,0.432 -0.72,1.036 -0.821,1.67 -0.014,0.13 -0.057,0.476 -0.057,0.85 0,1.412 0.475,2.202 0.979,2.563 0.417,0.302 0.835,0.33 1.021,0.33 0.189,0 0.563,-0.028 0.952,-0.273 1.094,-0.691 1.05,-2.403 1.05,-2.606 M 1.607,3.67 H 0.484 V 2.52 H 1.607 V -3.729 H 3.32 V 2.52 H 4.631 V 3.67 H 3.32 v 1.484 c 0,0.116 -0.072,0.878 0.547,1.095 0.174,0.073 0.347,0.073 0.404,0.073 0.158,0 0.288,-0.045 0.345,-0.073 L 4.631,7.372 C 4.458,7.372 3.494,7.443 2.773,7.126 1.636,6.623 1.636,5.212 1.622,4.938 1.607,4.765 1.607,4.593 1.607,4.435 Z m 8.726,-7.399 h 3.181 c 0.721,0.014 1.023,0.058 1.382,0.144 1.311,0.316 1.958,1.194 2.175,1.656 0.216,0.461 0.23,0.907 0.23,1.079 0,0.936 -0.403,1.426 -0.663,1.7 -0.128,0.114 -0.259,0.231 -0.388,0.358 l -0.562,0.52 c 0.59,0.633 1.21,1.282 1.21,2.203 0,0.274 -0.071,0.834 -0.533,1.411 -0.805,1.037 -1.9,1.08 -2.361,1.093 -0.202,0.014 -0.419,0.014 -0.619,0 h -3.052 z m 1.757,8.97 c 0.214,0.114 0.574,0.287 1.164,0.287 0.794,0 1.629,-0.345 2.016,-1.064 0.059,-0.101 0.187,-0.346 0.187,-0.677 0,-0.548 -0.402,-0.98 -0.488,-1.08 -0.375,-0.418 -0.893,-0.822 -0.893,-1.382 0,-0.173 0.044,-0.331 0.13,-0.49 0.057,-0.086 0.173,-0.245 0.359,-0.432 0.461,-0.431 1.066,-0.793 1.066,-1.497 0,-0.418 -0.158,-0.806 -0.447,-1.109 -0.432,-0.476 -1.051,-0.618 -1.67,-0.618 -0.706,0 -1.123,0.156 -1.41,0.242 z M 25.542,3.758 24.622,3.21 c -1.268,0.519 -1.685,0.649 -2.435,0.649 -1.425,0 -2.779,-0.735 -3.412,-2.016 -0.388,-0.792 -0.418,-1.612 -0.418,-1.901 0,-0.979 0.331,-1.684 0.504,-2.016 0.246,-0.417 0.519,-0.691 0.649,-0.821 0.95,-0.82 2.131,-0.805 2.519,-0.82 0.259,-0.014 0.504,-0.014 0.749,-0.014 h 2.764 z m -1.684,-6.234 c -0.719,-0.245 -1.007,-0.289 -1.411,-0.289 -0.174,-0.014 -0.633,0.014 -1.08,0.217 -1.008,0.46 -1.138,1.526 -1.18,1.858 -0.058,0.344 -0.058,0.632 -0.058,0.776 0,0.245 0,1.83 1.108,2.549 0.432,0.273 0.85,0.317 1.036,0.317 0.952,0 1.354,-0.663 1.47,-0.98 0.115,-0.301 0.115,-0.647 0.115,-0.748 z m 3.188,0.604 -0.013,-1.641 c 0.373,-0.144 0.977,-0.403 1.942,-0.418 1.109,0 1.685,0.346 2.073,0.676 0.735,0.65 0.793,1.426 0.793,1.801 0,0.259 -0.058,1.008 -0.692,1.526 -0.417,0.345 -1.022,0.532 -1.526,0.735 -0.446,0.172 -0.677,0.301 -0.85,0.46 -0.172,0.145 -0.273,0.374 -0.273,0.618 0,0.117 0.028,0.362 0.217,0.591 0.331,0.389 0.978,0.417 1.078,0.417 0.504,0 0.922,-0.201 1.311,-0.504 0.13,-0.086 0.245,-0.171 0.36,-0.273 V 3.57 C 30.89,3.758 30.458,3.874 29.854,3.874 29.45,3.874 29.076,3.815 28.932,3.787 28.471,3.687 28.169,3.527 28.01,3.427 27.377,3.01 26.974,2.26 26.974,1.512 c 0,-0.217 0.043,-0.85 0.489,-1.325 0.433,-0.46 1.224,-0.706 1.339,-0.749 0.606,-0.201 1.513,-0.46 1.513,-1.267 0,-0.1 -0.016,-0.316 -0.173,-0.533 -0.159,-0.217 -0.461,-0.517 -1.094,-0.517 -0.922,0 -1.585,0.562 -1.786,0.748 z m 12.756,1.799 c -0.015,0.29 0.029,1.325 -0.404,2.218 -0.777,1.569 -2.448,1.714 -2.965,1.714 -0.476,0 -1.802,-0.116 -2.737,-1.224 -0.863,-1.023 -0.921,-2.332 -0.921,-2.751 0,-1.784 0.921,-2.72 1.512,-3.123 0.403,-0.289 1.21,-0.677 2.433,-0.692 0.95,0 1.656,0.231 1.988,0.346 0.373,0.143 0.69,0.316 0.819,0.388 v 1.455 c -0.331,-0.316 -0.446,-0.433 -0.647,-0.575 -0.734,-0.549 -1.411,-0.606 -1.786,-0.606 -0.605,0 -1.295,0.188 -1.727,0.619 -0.547,0.519 -0.705,1.31 -0.75,1.512 -0.042,0.259 -0.042,0.446 -0.056,0.719 z m -5.171,0.951 c 0.031,0.216 0.059,0.433 0.131,0.648 0.086,0.273 0.519,1.339 1.627,1.353 0.158,0 0.49,-0.028 0.85,-0.259 0.647,-0.402 0.748,-1.022 0.792,-1.727 z M 42.86,7.372 H 41.147 V -3.729 h 1.713 z"
             style="fill:#000000;fill-opacity:1;fill-rule:nonzero;stroke:none"
             id="path20" />
        </g>
        <g
           id="g22"
           transform="translate(54.4756,24.9854)">
          <path
             d="m 0,0 h -1.757 v -5.789 c 0.014,-0.891 0,-1.353 -0.115,-1.784 -0.13,-0.447 -0.359,-0.734 -0.475,-0.878 -0.231,-0.259 -0.576,-0.576 -1.34,-0.706 -0.301,-0.057 -0.546,-0.057 -0.66,-0.057 -1.512,0 -2.132,0.806 -2.362,1.396 -0.173,0.462 -0.217,1.008 -0.202,2.029 V 0 h -1.757 v -5.414 c -0.014,-1.194 0.03,-1.842 0.202,-2.375 0.186,-0.634 0.59,-1.225 1.123,-1.626 0.461,-0.376 1.484,-0.938 2.996,-0.938 1.368,0 2.345,0.476 2.793,0.749 1.05,0.691 1.353,1.7 1.453,2.161 C 0,-6.954 0.015,-6.45 0,-5.414 Z m 1.771,-2.764 v -7.401 h 1.713 v 6.119 c 0.289,0.145 0.605,0.317 1.282,0.317 1.108,0 1.541,-0.504 1.698,-0.993 0.073,-0.231 0.102,-0.46 0.116,-0.965 v -4.478 h 1.699 v 4.478 c -0.057,0.836 -0.115,1.569 -0.791,2.145 -0.821,0.705 -1.902,0.778 -4.004,0.778 z m 10.237,0 h -1.714 v -7.401 h 1.714 z m -1.871,1.843 c 0,-0.562 0.46,-1.008 1.007,-1.008 0.561,0 1.022,0.446 1.022,1.008 0,0.562 -0.445,1.021 -1.008,1.021 -0.561,0 -1.021,-0.459 -1.021,-1.021 m 11.331,-1.843 h -1.54 l -2.117,-5.903 c -0.102,-0.317 -0.116,-0.39 -0.346,-0.39 l -2.232,6.293 h -1.857 l 2.735,-7.401 h 0.879 c 0.532,0.015 0.95,0.029 1.411,0.317 0.605,0.389 0.892,1.123 1.123,1.757 z m 7.298,-3.744 c -0.014,0.288 0.028,1.326 -0.403,2.217 -0.778,1.571 -2.448,1.713 -2.966,1.713 -0.476,0 -1.799,-0.114 -2.735,-1.223 -0.865,-1.022 -0.922,-2.332 -0.922,-2.751 0,-1.784 0.922,-2.72 1.512,-3.124 0.403,-0.286 1.209,-0.677 2.433,-0.69 0.951,0 1.655,0.23 1.988,0.345 0.373,0.144 0.69,0.316 0.82,0.39 v 1.453 c -0.331,-0.317 -0.447,-0.432 -0.648,-0.576 -0.736,-0.547 -1.411,-0.604 -1.786,-0.604 -0.604,0 -1.295,0.186 -1.728,0.619 -0.547,0.518 -0.705,1.309 -0.748,1.511 -0.043,0.26 -0.043,0.447 -0.057,0.72 z m -5.168,0.95 c 0.028,0.217 0.057,0.433 0.128,0.649 0.086,0.273 0.518,1.339 1.628,1.353 0.157,0 0.49,-0.027 0.85,-0.258 0.647,-0.404 0.748,-1.023 0.791,-1.729 z m 6.522,2.794 v -7.401 h 1.713 v 6.292 c 0.273,0.13 0.59,0.259 1.238,0.216 -0.057,-0.086 -0.158,-0.201 -0.158,-0.447 0,-0.215 0.058,-0.36 0.087,-0.431 0.158,-0.36 0.503,-0.562 0.907,-0.562 0.647,0 1.035,0.475 1.035,1.095 0,0.345 -0.144,0.575 -0.2,0.676 -0.347,0.519 -1.008,0.533 -1.571,0.562 z m 5.69,-5.543 -0.014,-1.642 c 0.373,-0.143 0.978,-0.404 1.944,-0.417 1.108,0 1.685,0.345 2.072,0.677 0.734,0.648 0.793,1.425 0.793,1.799 0,0.26 -0.059,1.009 -0.692,1.528 -0.418,0.344 -1.022,0.531 -1.526,0.733 -0.447,0.171 -0.677,0.301 -0.85,0.461 -0.172,0.144 -0.273,0.374 -0.273,0.618 0,0.115 0.028,0.36 0.216,0.591 0.33,0.389 0.979,0.417 1.08,0.417 0.503,0 0.921,-0.201 1.311,-0.504 0.128,-0.086 0.244,-0.172 0.358,-0.273 v 1.453 c -0.575,0.187 -1.007,0.304 -1.611,0.304 -0.404,0 -0.778,-0.058 -0.922,-0.086 -0.46,-0.102 -0.763,-0.26 -0.922,-0.362 -0.632,-0.417 -1.036,-1.164 -1.036,-1.914 0,-0.217 0.042,-0.849 0.49,-1.324 0.432,-0.46 1.223,-0.706 1.339,-0.749 0.604,-0.202 1.511,-0.46 1.511,-1.267 0,-0.101 -0.015,-0.318 -0.174,-0.533 -0.156,-0.217 -0.459,-0.518 -1.094,-0.518 -0.92,0 -1.582,0.561 -1.785,0.749 z m 8.148,5.543 h -1.712 v -7.401 h 1.712 z m -1.871,1.843 c 0,-0.562 0.46,-1.008 1.008,-1.008 0.563,0 1.023,0.446 1.023,1.008 0,0.562 -0.447,1.021 -1.008,1.021 -0.563,0 -1.023,-0.459 -1.023,-1.021 m 7.299,-1.843 h -1.295 v 2.534 c 0,0.172 0.014,0.447 -0.23,0.447 -0.056,0 -0.159,-0.03 -0.201,-0.058 -0.073,-0.059 -0.086,-0.173 -0.101,-0.36 -0.101,-0.663 -0.288,-1.311 -0.72,-1.815 -0.59,-0.719 -1.223,-0.734 -1.599,-0.763 v -1.137 h 1.124 v -6.249 h 1.727 v 6.249 h 1.295 z m 8.675,0 h -1.555 l -2.332,-6.537 -2.318,6.537 h -1.888 l 2.809,-7.386 c 0.143,-0.058 0.229,-0.101 0.287,-0.145 0.202,-0.144 0.304,-0.404 0.304,-0.648 0,-0.474 -0.317,-0.704 -0.462,-0.791 -0.432,-0.231 -1.281,-0.115 -1.309,-0.115 l -0.015,-1.297 c 0.59,0 1.165,0 1.728,0.216 0.69,0.246 1.036,0.706 1.353,1.368 0.215,0.418 0.373,0.863 0.532,1.311 z"
             style="fill:#000000;fill-opacity:1;fill-rule:nonzero;stroke:none"
             id="path24" />
        </g>
        <g
           id="g26"
           transform="translate(12.1411,23.3145)">
          <path
             d="m 0,0 c 0,0.457 0.704,0.457 0.704,0 v -9.576 c 0,-0.457 -0.704,-0.457 -0.704,0 z m 0,2.64 c 0,-0.457 0.704,-0.457 0.704,0 v 10.896 l -0.704,0 z m 0,-14.856 c 0,0.456 0.705,0.456 0.705,0 V -23.112 H 0 Z m 12.495,2.64 c 0,-0.457 0.703,-0.457 0.703,0 V 0 c 0,0.457 -0.703,0.457 -0.703,0 z m 0,23.112 h 0.703 V 2.64 c 0,-0.457 -0.703,-0.457 -0.703,0 z m 0,-36.648 h 0.703 v 10.896 c 0,0.456 -0.703,0.456 -0.703,0 z M 11.497,1.666 c 0.466,0 0.466,-0.69 0,-0.69 H 1.702 c -0.466,0 -0.466,0.69 0,0.69 z M 1.702,-10.551 c -0.466,0 -0.466,-0.69 0,-0.69 h 9.795 c 0.466,0 0.466,0.69 0,0.69 z M 25.341,1.666 V 0.976 H 14.196 c -0.467,0 -0.467,0.69 0,0.69 z m -37.483,0 v -0.69 h 11.144 c 0.468,0 0.468,0.69 0,0.69 z m 37.483,-12.217 v -0.69 H 14.196 c -0.467,0 -0.467,0.69 0,0.69 z m -37.483,0 v -0.69 h 11.144 c 0.468,0 0.468,0.69 0,0.69 z M 6.113,-3.828 C 6.444,-4.15 5.946,-4.638 5.616,-4.316 5.286,-3.992 1.059,0.14 1.059,0.14 0.729,0.462 1.228,0.951 1.558,0.627 1.842,0.349 6.113,-3.828 6.113,-3.828 M 1.558,-11.59 c -0.33,0.324 -0.829,-0.164 -0.499,-0.487 0,0 4.227,-4.132 4.557,-4.455 0.33,-0.323 0.828,0.165 0.497,0.487 0,0 -4.271,4.178 -4.555,4.455 m 17.052,7.762 c 0.33,-0.322 -0.168,-0.81 -0.499,-0.488 -0.329,0.324 -4.555,4.456 -4.555,4.456 -0.331,0.322 0.167,0.811 0.497,0.487 0.285,-0.278 4.557,-4.455 4.557,-4.455 M 12.138,0.14 c 0.331,0.323 -0.168,0.811 -0.497,0.488 0,0 -4.227,-4.132 -4.558,-4.455 -0.329,-0.323 0.168,-0.811 0.5,-0.488 0,0 4.271,4.177 4.555,4.455 M 7.583,-16.531 c -0.332,-0.323 -0.829,0.165 -0.5,0.487 0.331,0.324 4.558,4.455 4.558,4.455 0.329,0.324 0.828,-0.164 0.497,-0.486 -0.284,-0.279 -4.555,-4.456 -4.555,-4.456 M -0.351,0.14 c 0.331,0.323 -0.167,0.811 -0.497,0.488 0,0 -4.227,-4.132 -4.557,-4.455 -0.33,-0.323 0.167,-0.811 0.498,-0.488 0,0 4.272,4.177 4.556,4.455 m 6.464,-5.889 c 0.331,0.324 -0.167,0.811 -0.497,0.488 -0.33,-0.323 -4.557,-4.455 -4.557,-4.455 -0.33,-0.324 0.169,-0.81 0.499,-0.488 0.284,0.279 4.555,4.455 4.555,4.455 M 1.558,2.014 C 1.228,1.69 0.729,2.178 1.059,2.5 c 0,0 4.227,4.133 4.557,4.456 0.33,0.323 0.828,-0.164 0.497,-0.487 0,0 -4.271,-4.177 -4.555,-4.455 M 18.61,-5.749 c 0.33,0.324 -0.168,0.811 -0.499,0.488 -0.329,-0.323 -4.555,-4.455 -4.555,-4.455 -0.331,-0.324 0.167,-0.81 0.497,-0.488 0.285,0.279 4.557,4.455 4.557,4.455 m -6.472,-3.967 c 0.33,-0.324 -0.168,-0.811 -0.499,-0.488 0,0 -4.225,4.132 -4.556,4.455 -0.33,0.324 0.168,0.811 0.499,0.488 0,0 4.272,-4.177 4.556,-4.455 M 7.582,6.956 C 7.251,7.279 6.753,6.792 7.083,6.468 7.414,6.145 11.639,2.012 11.639,2.012 11.97,1.69 12.468,2.177 12.138,2.5 11.854,2.778 7.582,6.956 7.582,6.956 m -7.979,-16.63 c 0.33,-0.324 -0.169,-0.812 -0.499,-0.488 0,0 -4.225,4.131 -4.555,4.455 -0.331,0.324 0.168,0.811 0.497,0.488 0,0 4.273,-4.178 4.557,-4.455 m 22.863,-10.135 -0.499,-0.487 -8.413,8.226 c -0.331,0.323 0.167,0.81 0.497,0.487 0.285,-0.278 8.415,-8.226 8.415,-8.226 m -23.318,8.225 c 0.331,0.322 0.829,-0.166 0.498,-0.488 l -8.414,-8.226 -0.497,0.486 c 0,0 8.128,7.949 8.413,8.228 M 21.967,10.724 22.466,10.236 14.051,2.01 c -0.33,-0.324 -0.828,0.164 -0.497,0.487 0.283,0.278 8.413,8.227 8.413,8.227 m -22.32,-8.23 c 0.33,-0.323 -0.168,-0.81 -0.499,-0.487 l -8.413,8.227 0.498,0.487 c 0,0 8.13,-7.948 8.414,-8.227 m 22.819,-10.09 -0.499,-0.485 -2.387,2.333 c -0.33,0.324 0.167,0.811 0.497,0.488 0.286,-0.279 2.389,-2.336 2.389,-2.336 m -2.89,3.772 c -0.33,-0.323 0.169,-0.81 0.499,-0.487 l 2.388,2.335 -0.498,0.487 c 0,0 -2.103,-2.057 -2.389,-2.335 M 9.47,10.728 9.968,10.24 7.582,7.906 C 7.25,7.582 6.753,8.069 7.083,8.392 7.367,8.671 9.47,10.728 9.47,10.728 M 5.619,7.906 C 5.949,7.582 6.446,8.069 6.117,8.392 L 3.729,10.728 3.23,10.24 c 0,0 2.104,-2.057 2.389,-2.334 m -14.884,-15.507 0.499,-0.487 2.388,2.335 c 0.33,0.322 -0.168,0.81 -0.498,0.486 -0.285,-0.278 -2.389,-2.334 -2.389,-2.334 m 2.885,3.773 c 0.331,-0.322 -0.167,-0.81 -0.497,-0.488 l -2.388,2.336 0.497,0.487 c 0,0 2.103,-2.057 2.388,-2.335 m 10.106,-16.471 -0.498,0.486 2.388,2.335 c 0.33,0.323 0.828,-0.164 0.499,-0.487 -0.284,-0.278 -2.389,-2.334 -2.389,-2.334 m 3.857,2.822 c -0.33,0.324 -0.828,-0.164 -0.498,-0.487 l 2.388,-2.334 0.498,0.486 c 0,0 -2.104,2.057 -2.388,2.335"
             style="fill:#000000;fill-opacity:1;fill-rule:nonzero;stroke:none"
             id="path28" />
        </g>
      </g>
    </g>
  </g>
</svg>
